# xmcd
#
# Track frame offsets: 
#        150
#        21895
#        38877
#        55748
#        89041
#        119681
#        134799
#        155286
#        174681
#        196339
#
# Disc length: 2901 seconds
#
# Revision: 0
# Processed by: cddbd v1.5.2PL0 Copyright (c) Steve Scherf et al.
# Submitted via: ExactAudioCopyFreeDBPlugin 1.0
#
DISCID=900b530a
DTITLE=Willie J Laws Band - Cornbread Moan
DYEAR=2014
DGENRE=Blues
TTITLE0=Boogie Man
TTITLE1=Love Letters
TTITLE2=She's In Houston
TTITLE3=Brother Go ahead And Take Her
TTITLE4=Smuggler
TTITLE5=Cornbread Moan
TTITLE6=Something Wrng
TTITLE7=Too Much Blues
TTITLE8=Trying to Lose These Blues 
TTITLE9=Wake Up Moses
EXTD=
EXTT0=
EXTT1=
EXTT2=
EXTT3=
EXTT4=
EXTT5=
EXTT6=
EXTT7=
EXTT8=
EXTT9=
PLAYORDER=
